<svg width="319.449" xmlns="http://www.w3.org/2000/svg" height="30" id="screenshot-6c21eeaf-ecf2-80cd-8007-8d450e4aa2d4" viewBox="4005.499 1435 319.449 30" xmlns:xlink="http://www.w3.org/1999/xlink" fill="none" version="1.1"><g id="shape-6c21eeaf-ecf2-80cd-8007-8d450e4aa2d4"><g class="fills" id="fills-6c21eeaf-ecf2-80cd-8007-8d450e4aa2d4"><path d="M4128.67431640625,1435.577392578125L4118.94873046875,1460.9775390625L4109.22607421875,1435.577392578125L4106.60888671875,1435.577392578125L4117.56103515625,1464.2578125L4120.34033203125,1464.2578125L4131.2900390625,1435.577392578125L4128.67431640625,1435.577392578125L4128.67431640625,1435.577392578125M4143.0234375,1435.577392578125L4132.48046875,1464.2578125L4135.17822265625,1464.2578125L4144.33447265625,1439.1005859375L4153.48486328125,1464.2578125L4156.18408203125,1464.2578125L4145.63818359375,1435.577392578125L4143.0234375,1435.577392578125L4143.0234375,1435.577392578125M4179.5361328125,1435.577392578125L4179.5361328125,1458.8525390625L4165.0732421875,1435.577392578125L4162.94921875,1435.577392578125L4162.94921875,1464.2578125L4165.39892578125,1464.2578125L4165.39892578125,1440.65673828125L4179.8681640625,1464.2578125L4181.98828125,1464.2578125L4181.98828125,1435.577392578125L4179.5361328125,1435.577392578125L4179.5361328125,1435.577392578125M4009.670166015625,1448.2763671875L4014.003662109375,1448.2763671875C4017.477783203125,1448.2763671875,4019.391845703125,1446.70654296875,4019.391845703125,1443.85498046875C4019.391845703125,1440.265869140625,4016.4609375,1439.512939453125,4014.003662109375,1439.512939453125L4009.670166015625,1439.512939453125L4009.670166015625,1448.2763671875L4009.670166015625,1448.2763671875M4024.72998046875,1464.424072265625L4020.025390625,1464.424072265625L4019.980224609375,1464.33251953125L4014.05859375,1452.381591796875L4009.6689453125,1452.381591796875L4009.6689453125,1464.424072265625L4005.497802734375,1464.424072265625L4005.497802734375,1435.40771484375L4014.9814453125,1435.40771484375C4019.95458984375,1435.40771484375,4023.5654296875,1438.9599609375,4023.5654296875,1443.85498046875C4023.5654296875,1447.392333984375,4021.542724609375,1450.463623046875,4018.400634765625,1451.733154296875L4024.72998046875,1464.424072265625L4024.72998046875,1464.424072265625M4036.979736328125,1464.424072265625L4032.760986328125,1464.424072265625L4032.760986328125,1435.40771484375L4036.979736328125,1435.40771484375L4036.979736328125,1464.424072265625L4036.979736328125,1464.424072265625M4068.37890625,1464.424072265625L4065.34423828125,1464.424072265625L4065.29541015625,1464.354248046875L4051.78564453125,1444.282470703125L4051.78564453125,1464.424072265625L4047.57177734375,1464.424072265625L4047.57177734375,1435.40771484375L4050.728515625,1435.40771484375L4050.77978515625,1435.4794921875L4064.20166015625,1455.2744140625L4064.20166015625,1435.40771484375L4068.37890625,1435.40771484375L4068.37890625,1464.424072265625L4068.37890625,1464.424072265625M4090.28564453125,1464.83642578125C4082.1201171875,1464.83642578125,4076.6357421875,1458.8433837890625,4076.6357421875,1449.918212890625C4076.6357421875,1445.373291015625,4078.06884765625,1441.529296875,4080.77880859375,1438.796630859375C4083.21044921875,1436.35009765625,4086.51708984375,1434.9822998046875,4089.9619140625,1435C4094.3505859375,1435,4098.0712890625,1436.976318359375,4100.72119140625,1440.72412109375L4100.810546875,1440.854248046875L4097.52197265625,1443.439697265625L4097.421875,1443.2958984375C4096.1337890625,1441.418701171875,4093.79638671875,1439.1845703125,4089.9619140625,1439.1845703125C4083.30810546875,1439.1845703125,4080.89208984375,1445.60400390625,4080.89208984375,1449.916748046875C4080.89208984375,1456.74072265625,4084.375,1460.65185546875,4090.44921875,1460.65185546875C4092.88671875,1460.65185546875,4095.00244140625,1459.61328125,4096.7392578125,1457.56103515625L4096.7392578125,1452.5421142578125L4089.7119140625,1452.5421142578125L4089.7119140625,1448.437255859375L4100.9140625,1448.437255859375L4100.9140625,1458.985595703125L4100.8837890625,1459.02685546875C4098.9453125,1461.734619140625,4095.98876953125,1464.83642578125,4090.28564453125,1464.83642578125M4197.3681640625,1448.2763671875L4201.69287109375,1448.2763671875C4205.16943359375,1448.2763671875,4207.0859375,1446.70166015625,4207.0859375,1443.853759765625C4207.0859375,1440.268798828125,4204.15283203125,1439.512939453125,4201.69287109375,1439.512939453125L4197.3681640625,1439.512939453125L4197.3681640625,1448.2763671875L4197.3681640625,1448.2763671875M4212.42919921875,1464.426025390625L4207.72216796875,1464.426025390625L4207.67431640625,1464.33251953125L4201.75634765625,1452.38037109375L4197.3681640625,1452.38037109375L4197.3681640625,1464.426025390625L4193.19091796875,1464.426025390625L4193.19091796875,1435.41259765625L4202.6767578125,1435.41259765625C4207.64990234375,1435.41259765625,4211.2607421875,1438.96337890625,4211.2607421875,1443.852294921875C4211.2607421875,1447.38916015625,4209.2392578125,1450.4620361328125,4206.09619140625,1451.7294921875L4212.42919921875,1464.426025390625L4212.42919921875,1464.426025390625M4224.41748046875,1464.426025390625L4220.19873046875,1464.426025390625L4220.19873046875,1435.41259765625L4224.41748046875,1435.41259765625L4224.41748046875,1464.426025390625L4224.41748046875,1464.426025390625M4262.47900390625,1464.426025390625L4258.2177734375,1464.426025390625L4258.2177734375,1439.512939453125L4244.1123046875,1439.512939453125L4244.1123046875,1464.426025390625L4239.85595703125,1464.426025390625L4239.85595703125,1439.512939453125L4232.09326171875,1439.512939453125L4232.09326171875,1435.4140625L4270.19775390625,1435.4140625L4270.19775390625,1439.512939453125L4262.47900390625,1439.512939453125L4262.47900390625,1464.426025390625L4262.47900390625,1464.426025390625M4297.23876953125,1464.426025390625L4292.75732421875,1464.426025390625L4292.71728515625,1464.317626953125L4284.49951171875,1441.718505859375L4276.197265625,1464.427490234375L4271.7138671875,1464.427490234375L4271.7978515625,1464.204345703125L4282.29736328125,1435.415283203125L4286.65771484375,1435.415283203125L4286.70263671875,1435.52392578125L4297.23876953125,1464.426025390625L4297.23876953125,1464.426025390625M4313.94775390625,1465C4306.83203125,1465,4302.9111328125,1460.516357421875,4302.9111328125,1452.37890625L4302.9111328125,1435.4140625L4307.1298828125,1435.4140625L4307.1298828125,1452.33740234375C4307.1298828125,1457.77734375,4309.6142578125,1460.8994140625,4313.94873046875,1460.8994140625C4318.25927734375,1460.8994140625,4320.7333984375,1457.763671875,4320.7333984375,1452.297607421875L4320.7333984375,1435.4140625L4324.947265625,1435.4140625L4324.947265625,1452.37890625C4324.9462890625,1460.516357421875,4321.0361328125,1465,4313.94775390625,1465" style="fill: rgb(255, 255, 255); fill-opacity: 1;"/></g></g></svg>
