<svg width="731.664" xmlns="http://www.w3.org/2000/svg" height="56" id="screenshot-6c21eeaf-ecf2-80cd-8007-8d450e4aa2d6" viewBox="0 0 731.664 56" xmlns:xlink="http://www.w3.org/1999/xlink" fill="none" version="1.1"><g id="shape-6c21eeaf-ecf2-80cd-8007-8d450e4aa2d6" width="1398" height="107" rx="0" ry="0" style="fill: rgb(0, 0, 0);"><g id="shape-6c21eeaf-ecf2-80cd-8007-8d450e4aa2d7" style="display: none;"><g class="fills" id="fills-6c21eeaf-ecf2-80cd-8007-8d450e4aa2d7"><rect width="731.6635514018699" height="56" x="0" transform="matrix(1.000000, 0.000000, 0.000000, 1.000000, 0.000000, 0.000000)" style="fill: none;" ry="0" fill="none" rx="0" y="0"/></g></g><g id="shape-6c21eeaf-ecf2-80cd-8007-8d450e4aa2d8"><g class="fills" id="fills-6c21eeaf-ecf2-80cd-8007-8d450e4aa2d8"><path d="M41.68008041381836,0.833740234375L23.309228897094727,48.64013671875L4.942530155181885,0.833740234375L-0.0005852541653439403,0.833740234375L20.685449600219727,54.815185546875L25.938623428344727,54.815185546875L46.62197494506836,0.833740234375L41.68008041381836,0.833740234375ZM68.7874984741211,0.833740234375L48.86928939819336,54.815185546875L53.96499252319336,54.815185546875L71.2616195678711,7.46533203125L88.5477523803711,54.815185546875L93.6456527709961,54.815185546875L73.7274398803711,0.833740234375L68.7874984741211,0.833740234375ZM137.75991821289062,0.833740234375L137.75991821289062,44.6417236328125L110.4391098022461,0.833740234375L106.4256820678711,0.833740234375L106.4256820678711,54.815185546875L111.0521469116211,54.815185546875L111.0521469116211,10.394775390625L138.38442993164062,54.815185546875L142.39126586914062,54.815185546875L142.39126586914062,0.833740234375L137.75991821289062,0.833740234375ZM171.44204711914062,24.7354736328125L179.61221313476562,24.7354736328125C186.18130493164062,24.7354736328125,189.80117797851562,21.77197265625,189.80117797851562,16.4111328125C189.80117797851562,9.6644287109375,184.25894165039062,8.24169921875,179.61221313476562,8.24169921875L171.44204711914062,8.24169921875L171.44204711914062,24.7354736328125ZM199.89321899414062,55.1309814453125L190.99990844726562,55.1309814453125L190.91128540039062,54.9556884765625L179.73306274414062,32.45947265625L171.44204711914062,32.45947265625L171.44204711914062,55.1309814453125L163.55044555664062,55.1309814453125L163.55044555664062,0.523681640625L181.47109985351562,0.523681640625C190.86465454101562,0.523681640625,197.68643188476562,7.2066650390625,197.68643188476562,16.4078369140625C197.68643188476562,23.0655517578125,193.86880493164062,28.8492431640625,187.93032836914062,31.2349853515625L199.89321899414062,55.1309814453125Z" style="fill: rgb(255, 255, 255); fill-opacity: 1;"/></g></g><g id="shape-6c21eeaf-ecf2-80cd-8007-8d450e4aa2d9"><g class="fills" id="fills-6c21eeaf-ecf2-80cd-8007-8d450e4aa2d9"><path d="M709.8084716796875,26.15869140625L699.5457763671875,26.15869140625L699.5457763671875,5.400146484375L709.8084716796875,5.400146484375C717.9637451171875,5.400146484375,720.8314208984375,10.4947509765625,720.8314208984375,15.927978515625C720.8314208984375,20.097900390625,717.9583740234375,26.15869140625,709.8084716796875,26.15869140625ZM721.8836669921875,54.9100341796875L726.9969482421875,54.9100341796875L714.9481201171875,30.1549072265625C721.5848388671875,28.2974853515625,725.3377685546875,22.426513671875,725.3377685546875,15.927978515625C725.3377685546875,6.7957763671875,719.6175537109375,0.7596435546875,710.2703857421875,0.7596435546875L695.0286865234375,0.7596435546875L695.0286865234375,54.9100341796875L699.5457763671875,54.9100341796875L699.5457763671875,30.7745361328125L710.2703857421875,30.7745361328125L721.8836669921875,54.9100341796875ZM676.6331787109375,32.5L676.6331787109375,0.767822265625L672.1170654296875,0.767822265625L672.1170654296875,32.3348388671875C672.1170654296875,44.7125244140625,667.1336669921875,51.36767578125,656.5628662109375,51.36767578125C645.9949951171875,51.36767578125,641.0130615234375,44.7125244140625,641.0130615234375,32.3348388671875L641.0130615234375,0.767822265625L636.5013427734375,0.767822265625L636.5013427734375,32.5C636.5013427734375,47.354736328125,642.9749755859375,56,656.5560302734375,56C670.1326904296875,56,676.6331787109375,47.3465576171875,676.6331787109375,32.5ZM625.2279052734375,5.08642578125L625.2279052734375,0.767822265625L589.4871826171875,0.767822265625L589.4871826171875,5.08642578125L605.3192138671875,5.08642578125L605.3192138671875,54.9100341796875L609.8367919921875,54.9100341796875L609.8367919921875,5.08642578125L625.2279052734375,5.08642578125ZM584.0711669921875,54.76953125L557.5150146484375,24.903564453125L579.7005615234375,0.767822265625L573.3621826171875,0.767822265625L555.1072998046875,20.71728515625L555.1072998046875,0.767822265625L550.5858154296875,0.767822265625L550.5858154296875,54.9183349609375L555.1072998046875,54.9183349609375L555.1072998046875,29.0816650390625L577.8739013671875,54.76953125L584.0711669921875,54.76953125ZM505.4754943847656,54.9100341796875L505.4754943847656,0.7596435546875L534.7386474609375,0.7596435546875L535.7742919921875,5.4083251953125L509.9916076660156,5.4083251953125L509.9916076660156,24.267822265625L530.1951904296875,24.267822265625L530.1951904296875,28.9248046875L509.9916076660156,28.9248046875L509.9916076660156,50.2529296875L536.0784912109375,50.2529296875L536.0784912109375,54.8934326171875L505.4754943847656,54.8934326171875L505.4754943847656,54.9100341796875ZM492.3480529785156,5.08642578125L492.3480529785156,0.767822265625L456.6078186035156,0.767822265625L456.6078186035156,5.08642578125L472.4574279785156,5.08642578125L472.4574279785156,54.9100341796875L476.9823303222656,54.9100341796875L476.9823303222656,5.08642578125L492.3480529785156,5.08642578125ZM443.6083068847656,0.767822265625L439.0848693847656,0.767822265625L439.0848693847656,54.9183349609375L443.6083068847656,54.9183349609375L443.6083068847656,0.767822265625ZM420.1859436035156,0.767822265625L415.6620178222656,0.767822265625L415.6620178222656,24.292724609375L389.9994201660156,24.292724609375L389.9994201660156,0.767822265625L385.4920959472656,0.767822265625L385.4920959472656,54.9183349609375L389.9994201660156,54.9183349609375L389.9994201660156,28.61083984375L415.6620178222656,28.61083984375L415.6620178222656,54.9183349609375L420.1859436035156,54.9183349609375L420.1859436035156,0.767822265625ZM367.5511779785156,12.66650390625L371.0360412597656,9.8839111328125C367.5502014160156,4.4755859375,362.1405334472656,0,351.8539123535156,0C339.6419982910156,0,327.5921936035156,9.5782470703125,327.5921936035156,27.8348388671875C327.5921936035156,43.9444580078125,337.0751037597656,55.7025146484375,352.4740295410156,55.7025146484375C362.8822326660156,55.7025146484375,368.3158264160156,49.83203125,371.7762756347656,44.8695068359375L368.3070373535156,42.086669921875C364.8221740722656,47.206298828125,359.5482482910156,51.062255859375,352.9159240722656,51.062255859375C340.6966857910156,51.062255859375,332.0917053222656,41.145263671875,332.4134826660156,27.84326171875C332.5589904785156,9.89208984375,344.3202209472656,4.623779296875,352.0223693847656,4.623779296875C359.2674865722656,4.6158447265625,364.0819396972656,7.72900390625,367.5511779785156,12.66650390625ZM299.1385803222656,26.15869140625L288.8592834472656,26.15869140625L288.8592834472656,5.400146484375L299.1385803222656,5.400146484375C307.2757873535156,5.400146484375,310.1424865722656,10.4947509765625,310.1424865722656,15.927978515625C310.1424865722656,20.097900390625,307.2679748535156,26.15869140625,299.1385803222656,26.15869140625ZM311.1971740722656,54.9100341796875L316.3158264160156,54.9100341796875L304.2494201660156,30.1549072265625C310.8832092285156,28.2974853515625,314.6424865722656,22.426513671875,314.6424865722656,15.927978515625C314.6424865722656,6.7957763671875,308.9349670410156,0.7596435546875,299.5965881347656,0.7596435546875L284.3509826660156,0.7596435546875L284.3509826660156,54.9100341796875L288.8592834472656,54.9100341796875L288.8592834472656,30.7745361328125L299.5965881347656,30.7745361328125L311.1971740722656,54.9100341796875ZM259.2206115722656,34.655517578125L239.92593383789062,34.655517578125L249.58486938476562,7.4150390625L259.2206115722656,34.655517578125ZM260.8788146972656,38.9736328125L266.4569396972656,54.9183349609375L271.4403381347656,54.9183349609375L252.00088500976562,0.767822265625L247.16323852539062,0.767822265625L227.70669555664062,54.9183349609375L232.68106079101562,54.9183349609375L238.41323852539062,38.9736328125L260.8788146972656,38.9736328125Z" style="fill: rgb(255, 255, 255); fill-opacity: 1;"/></g></g></g></svg>
